<svg id="Group_21122" data-name="Group 21122" xmlns="http://www.w3.org/2000/svg" width="34" height="34" viewBox="0 0 34 34">
  <g id="Group_21124" data-name="Group 21124">
    <path id="Path_18269" data-name="Path 18269" d="M17.591,14.157a2.81,2.81,0,0,0-.418-.031,2.728,2.728,0,0,0-.414.031,2.843,2.843,0,1,0,.832,0" fill="#fff"/>
    <path id="Path_18270" data-name="Path 18270" d="M22.591,7.774H11.673a3.9,3.9,0,0,0-3.9,3.878V22.387a3.9,3.9,0,0,0,3.9,3.872H22.582a3.9,3.9,0,0,0,3.907-3.88V11.645a3.9,3.9,0,0,0-3.9-3.871m-4.56,14.974a5.7,5.7,0,0,1-.859.065,5.843,5.843,0,0,1-.855-11.622,5.68,5.68,0,0,1,1.717,0,5.807,5.807,0,0,1,4.92,4.92h0a5.848,5.848,0,0,1-4.923,6.637M24.165,12.17a1.446,1.446,0,0,1-.49.321,1.414,1.414,0,0,1-.571.11,1.491,1.491,0,0,1-1.059-2.55,1.093,1.093,0,0,1,.23-.191,1.939,1.939,0,0,1,.25-.139.924.924,0,0,1,.28-.08,1.46,1.46,0,0,1,.589,0,.848.848,0,0,1,.281.08,2.221,2.221,0,0,1,.26.139,1.422,1.422,0,0,1,.23.191A1.476,1.476,0,0,1,24.6,11.11a1.513,1.513,0,0,1-.439,1.06" fill="#fff"/>
    <path id="Path_18271" data-name="Path 18271" d="M31,0H3A3,3,0,0,0,0,3V31a3,3,0,0,0,3,3H31a3,3,0,0,0,3-3V3a3,3,0,0,0-3-3M29.489,22.387a6.856,6.856,0,0,1-2.047,4.876,6.738,6.738,0,0,1-4.89,1.995H11.665A6.9,6.9,0,0,1,4.773,22.4V11.644a6.9,6.9,0,0,1,6.9-6.871H22.6a6.9,6.9,0,0,1,6.89,6.863Z" fill="#fff"/>
  </g>
</svg>
