<svg xmlns="http://www.w3.org/2000/svg" width="34.5" height="34.5" viewBox="0 0 34.5 34.5">
  <path id="Icon_simple-linkedin" data-name="Icon simple-linkedin" d="M29.393,29.4H24.284V21.394c0-1.909-.039-4.366-2.662-4.366-2.664,0-3.07,2.077-3.07,4.225V29.4H13.442V12.938H18.35v2.244h.066a5.384,5.384,0,0,1,4.844-2.659c5.176,0,6.134,3.407,6.134,7.842V29.4ZM7.672,10.685a2.967,2.967,0,1,1,2.967-2.968A2.964,2.964,0,0,1,7.672,10.685ZM10.234,29.4H5.11V12.938h5.123ZM31.948,0H2.546A2.515,2.515,0,0,0,0,2.485V32.015A2.514,2.514,0,0,0,2.546,34.5h29.4A2.524,2.524,0,0,0,34.5,32.015V2.485A2.525,2.525,0,0,0,31.944,0Z" fill="#fff"/>
</svg>
